<svg width="32" height="32" viewBox="0 0 32 32" fill="none" xmlns="http://www.w3.org/2000/svg">
<g clip-path="url(#clip0_1490_5599)">
<path d="M20 16C20 18.2091 18.2091 20 16 20C13.7909 20 12 18.2091 12 16C12 13.7909 13.7909 12 16 12C18.2091 12 20 13.7909 20 16Z" fill="#C83F49"/>
<path d="M17.455 7.88134C17.0378 8.13537 16.8293 8.26238 16.6136 8.33369C16.2149 8.46548 15.7876 8.46553 15.3889 8.33385C15.1732 8.26259 14.9646 8.13564 14.5474 7.88172L12.7253 6.77281C12.3078 6.51869 12.099 6.39163 11.9325 6.23016C11.6247 5.93175 11.4109 5.54114 11.3197 5.11081C11.2704 4.87796 11.2705 4.62373 11.2706 4.11527L11.2709 2.6068C11.2711 1.96739 11.2712 1.64768 11.3622 1.44378C11.5324 1.06263 11.9094 0.833323 12.3074 0.868842C12.5204 0.887843 12.7828 1.0479 13.3076 1.36801L14.5479 2.12458C14.9653 2.3792 15.174 2.50651 15.3899 2.578C15.7889 2.71014 16.2166 2.7103 16.6156 2.57848C16.8316 2.50715 17.0404 2.38 17.458 2.1257L18.694 1.37305C19.2187 1.0535 19.4811 0.893724 19.694 0.874869C20.092 0.839624 20.4687 1.06906 20.6388 1.45018C20.7297 1.65406 20.7297 1.97361 20.7297 2.61271L20.7297 4.11627C20.7297 4.62445 20.7297 4.87855 20.6804 5.11128C20.5893 5.5414 20.3756 5.93181 20.068 6.23013C19.9015 6.39155 19.6929 6.5186 19.2756 6.77269L17.455 7.88134Z" fill="#2845C1"/>
<path d="M23.7585 13.2006C23.3299 12.9663 23.1156 12.8492 22.946 12.698C22.6325 12.4187 22.4188 12.0486 22.3335 11.6375C22.2874 11.4151 22.293 11.1709 22.3043 10.6827L22.3536 8.55027C22.3649 8.06159 22.3706 7.81726 22.4272 7.5923C22.5317 7.17655 22.7631 6.79608 23.0902 6.50198C23.2672 6.34285 23.4874 6.21578 23.9278 5.96165L25.2343 5.20772C25.7881 4.88815 26.065 4.72836 26.2872 4.70526C26.7023 4.66209 27.0894 4.87392 27.2577 5.23638C27.3477 5.43029 27.3403 5.73756 27.3255 6.3521L27.2904 7.80454C27.2786 8.29336 27.2727 8.53776 27.3187 8.76047C27.4038 9.17203 27.6175 9.54255 27.9312 9.82222C28.1009 9.97355 28.3155 10.0908 28.7445 10.3253L30.0143 11.0194C30.5534 11.3141 30.823 11.4614 30.9458 11.6364C31.1753 11.9634 31.1649 12.4044 30.9199 12.7422C30.7888 12.9229 30.5121 13.0827 29.9586 13.4023L28.6565 14.154C28.2164 14.4081 27.9963 14.5352 27.7701 14.6088C27.352 14.7449 26.9071 14.7551 26.4949 14.6378C26.2719 14.5744 26.0576 14.4573 25.6289 14.2229L23.7585 13.2006Z" fill="#2845C1"/>
<path d="M22.3036 21.3191C22.2922 20.8308 22.2865 20.5867 22.3326 20.3642C22.4178 19.9531 22.6314 19.583 22.9448 19.3036C23.1143 19.1524 23.3286 19.0352 23.7571 18.8009L25.6285 17.7774C26.0573 17.5428 26.2718 17.4255 26.4949 17.362C26.9072 17.2447 27.3524 17.2548 27.7706 17.3911C27.9969 17.4648 28.2171 17.592 28.6573 17.8463L29.9635 18.6008C30.5172 18.9207 30.7941 19.0806 30.9251 19.2614C31.1701 19.5994 31.1802 20.0405 30.9504 20.3675C30.8275 20.5424 30.5577 20.6896 30.0181 20.984L28.7427 21.6799C28.3135 21.9141 28.0988 22.0312 27.929 22.1824C27.6151 22.4618 27.4011 22.8322 27.3157 23.2437C27.2695 23.4663 27.2752 23.7107 27.2867 24.1995L27.3205 25.6463C27.3348 26.2605 27.342 26.5676 27.2519 26.7614C27.0834 27.1237 26.6964 27.3352 26.2813 27.2919C26.0592 27.2688 25.7825 27.109 25.229 26.7894L23.9269 26.0377C23.4868 25.7836 23.2667 25.6565 23.0899 25.4974C22.7629 25.2034 22.5317 24.8232 22.4271 24.4076C22.3706 24.1828 22.3648 23.9386 22.3534 23.4502L22.3036 21.3191Z" fill="#2845C1"/>
<path d="M14.5453 24.1185C14.9625 23.8644 15.1711 23.7374 15.3868 23.6661C15.7854 23.5343 16.2127 23.5343 16.6114 23.666C16.8271 23.7372 17.0357 23.8642 17.4529 24.1181L19.275 25.227C19.6926 25.4811 19.9013 25.6082 20.0679 25.7697C20.3756 26.0681 20.5895 26.4587 20.6806 26.889C20.7299 27.1219 20.7299 27.3761 20.7297 27.8845L20.7294 29.393C20.7292 30.0324 20.7292 30.3521 20.6381 30.556C20.4679 30.9372 20.0909 31.1665 19.6929 31.131C19.4799 31.112 19.2176 30.9519 18.6928 30.6318L17.4524 29.8752C17.035 29.6206 16.8263 29.4933 16.6104 29.4218C16.2115 29.2897 15.7837 29.2895 15.3847 29.4213C15.1687 29.4927 14.9599 29.6198 14.5423 29.8741L13.3063 30.6268C12.7816 30.9463 12.5192 31.1061 12.3063 31.1249C11.9084 31.1602 11.5316 30.9308 11.3615 30.5496C11.2706 30.3458 11.2706 30.0262 11.2706 29.3871V27.8835C11.2706 27.3754 11.2706 27.1213 11.3199 26.8885C11.411 26.4584 11.6248 26.068 11.9323 25.7697C12.0988 25.6083 12.3074 25.4812 12.7247 25.2271L14.5453 24.1185Z" fill="#2845C1"/>
<path d="M8.24185 18.7993C8.67043 19.0335 8.88471 19.1506 9.05432 19.3018C9.36777 19.5811 9.58148 19.9512 9.66677 20.3623C9.71292 20.5847 9.70728 20.8289 9.69599 21.3171L9.64668 23.4495C9.63538 23.9382 9.62973 24.1826 9.57316 24.4075C9.46861 24.8233 9.23725 25.2037 8.91014 25.4978C8.73314 25.657 8.51294 25.784 8.07255 26.0382L6.766 26.7921C6.21218 27.1117 5.93527 27.2715 5.71316 27.2946C5.29797 27.3377 4.91089 27.1259 4.74263 26.7634C4.65262 26.5695 4.66004 26.2623 4.67486 25.6477L4.7099 24.1953C4.7217 23.7065 4.72759 23.462 4.68157 23.2393C4.59653 22.8278 4.3828 22.4573 4.06912 22.1776C3.89938 22.0263 3.68486 21.909 3.25583 21.6745L1.98602 20.9804C1.4469 20.6857 1.17734 20.5384 1.05457 20.3635C0.825065 20.0364 0.835373 19.5954 1.08041 19.2576C1.2115 19.0769 1.48824 18.9171 2.04172 18.5976L3.34383 17.8458C3.78393 17.5917 4.00399 17.4646 4.2302 17.391C4.64827 17.2549 5.09323 17.2447 5.50538 17.362C5.72839 17.4254 5.94273 17.5426 6.37142 17.7769L8.24185 18.7993Z" fill="#2845C1"/>
<path d="M9.6967 10.6807C9.70811 11.169 9.71382 11.4131 9.66772 11.6356C9.58253 12.0467 9.36892 12.4168 9.05554 12.6962C8.88597 12.8474 8.67172 12.9646 8.24321 13.199L6.37184 14.2225C5.94299 14.457 5.72856 14.5743 5.50545 14.6378C5.09313 14.7551 4.64795 14.745 4.2297 14.6087C4.00339 14.535 3.78325 14.4079 3.34297 14.1535L2.03677 13.399C1.4831 13.0792 1.20627 12.9192 1.07521 12.7384C0.830224 12.4005 0.820134 11.9593 1.04991 11.6324C1.17283 11.4575 1.44264 11.3102 1.98226 11.0158L3.25764 10.3199C3.68686 10.0857 3.90147 9.96865 4.07133 9.81745C4.38523 9.53801 4.59924 9.16766 4.6846 8.75617C4.73079 8.53351 4.72508 8.2891 4.71365 7.8003L4.67984 6.35356C4.66548 5.73933 4.6583 5.43222 4.74842 5.23842C4.91687 4.87616 5.30396 4.66458 5.71904 4.70788C5.94109 4.73104 6.21782 4.89082 6.7713 5.21037L8.07341 5.96215C8.51352 6.21624 8.73357 6.34329 8.91046 6.50237C9.23738 6.79637 9.46863 7.17665 9.57318 7.59219C9.62976 7.81704 9.63547 8.06125 9.64689 8.54966L9.6967 10.6807Z" fill="#2845C1"/>
</g>
<defs>
<clipPath id="clip0_1490_5599">
<rect width="32" height="32" fill="white"/>
</clipPath>
</defs>
</svg>
