<svg width="168" height="40" viewBox="0 0 168 40" fill="none" xmlns="http://www.w3.org/2000/svg">
<g clip-path="url(#clip0_1490_5598)">
<path d="M24 20C24 22.2091 22.2091 24 20 24C17.7909 24 16 22.2091 16 20C16 17.7909 17.7909 16 20 16C22.2091 16 24 17.7909 24 20Z" fill="#C83F49"/>
<path d="M21.455 11.8813C21.0378 12.1354 20.8293 12.2624 20.6136 12.3337C20.2149 12.4655 19.7876 12.4655 19.3889 12.3338C19.1732 12.2626 18.9646 12.1356 18.5474 11.8817L16.7253 10.7728C16.3078 10.5187 16.099 10.3916 15.9325 10.2302C15.6247 9.93175 15.4109 9.54114 15.3197 9.11081C15.2704 8.87796 15.2705 8.62373 15.2706 8.11527L15.2709 6.6068C15.2711 5.96739 15.2712 5.64768 15.3622 5.44378C15.5324 5.06263 15.9094 4.83332 16.3074 4.86884C16.5204 4.88784 16.7828 5.0479 17.3076 5.36801L18.5479 6.12458C18.9653 6.3792 19.174 6.50651 19.3899 6.578C19.7889 6.71014 20.2166 6.7103 20.6156 6.57848C20.8316 6.50715 21.0404 6.38 21.458 6.1257L22.694 5.37305C23.2187 5.0535 23.4811 4.89372 23.694 4.87487C24.092 4.83962 24.4687 5.06906 24.6388 5.45018C24.7297 5.65406 24.7297 5.97361 24.7297 6.61271L24.7297 8.11627C24.7297 8.62445 24.7297 8.87855 24.6804 9.11128C24.5893 9.5414 24.3756 9.93181 24.068 10.2301C23.9015 10.3915 23.6929 10.5186 23.2756 10.7727L21.455 11.8813Z" fill="#2845C1"/>
<path d="M27.7585 17.2006C27.3299 16.9663 27.1156 16.8492 26.946 16.698C26.6325 16.4187 26.4188 16.0486 26.3335 15.6375C26.2874 15.4151 26.293 15.1709 26.3043 14.6827L26.3536 12.5503C26.3649 12.0616 26.3706 11.8173 26.4272 11.5923C26.5317 11.1765 26.7631 10.7961 27.0902 10.502C27.2672 10.3428 27.4874 10.2158 27.9278 9.96165L29.2343 9.20772C29.7881 8.88815 30.065 8.72836 30.2872 8.70526C30.7023 8.66209 31.0894 8.87392 31.2577 9.23638C31.3477 9.43029 31.3403 9.73756 31.3255 10.3521L31.2904 11.8045C31.2786 12.2934 31.2727 12.5378 31.3187 12.7605C31.4038 13.172 31.6175 13.5425 31.9312 13.8222C32.1009 13.9735 32.3155 14.0908 32.7445 14.3253L34.0143 15.0194C34.5534 15.3141 34.823 15.4614 34.9458 15.6364C35.1753 15.9634 35.1649 16.4044 34.9199 16.7422C34.7888 16.9229 34.5121 17.0827 33.9586 17.4023L32.6565 18.154C32.2164 18.4081 31.9963 18.5352 31.7701 18.6088C31.352 18.7449 30.9071 18.7551 30.4949 18.6378C30.2719 18.5744 30.0576 18.4573 29.6289 18.2229L27.7585 17.2006Z" fill="#2845C1"/>
<path d="M26.3036 25.3191C26.2922 24.8308 26.2865 24.5867 26.3326 24.3642C26.4178 23.9531 26.6314 23.583 26.9448 23.3036C27.1143 23.1524 27.3286 23.0352 27.7571 22.8009L29.6285 21.7774C30.0573 21.5428 30.2718 21.4255 30.4949 21.362C30.9072 21.2447 31.3524 21.2548 31.7706 21.3911C31.9969 21.4648 32.2171 21.592 32.6573 21.8463L33.9635 22.6008C34.5172 22.9207 34.7941 23.0806 34.9251 23.2614C35.1701 23.5994 35.1802 24.0405 34.9504 24.3675C34.8275 24.5424 34.5577 24.6896 34.0181 24.984L32.7427 25.6799C32.3135 25.9141 32.0988 26.0312 31.929 26.1824C31.6151 26.4618 31.4011 26.8322 31.3157 27.2437C31.2695 27.4663 31.2752 27.7107 31.2867 28.1995L31.3205 29.6463C31.3348 30.2605 31.342 30.5676 31.2519 30.7614C31.0834 31.1237 30.6964 31.3352 30.2813 31.2919C30.0592 31.2688 29.7825 31.109 29.229 30.7894L27.9269 30.0377C27.4868 29.7836 27.2667 29.6565 27.0899 29.4974C26.7629 29.2034 26.5317 28.8232 26.4271 28.4076C26.3706 28.1828 26.3648 27.9386 26.3534 27.4502L26.3036 25.3191Z" fill="#2845C1"/>
<path d="M18.5453 28.1185C18.9625 27.8644 19.1711 27.7374 19.3868 27.6661C19.7854 27.5343 20.2127 27.5343 20.6114 27.666C20.8271 27.7372 21.0357 27.8642 21.4529 28.1181L23.275 29.227C23.6926 29.4811 23.9013 29.6082 24.0679 29.7697C24.3756 30.0681 24.5895 30.4587 24.6806 30.889C24.7299 31.1219 24.7299 31.3761 24.7297 31.8845L24.7294 33.393C24.7292 34.0324 24.7292 34.3521 24.6381 34.556C24.4679 34.9372 24.0909 35.1665 23.6929 35.131C23.4799 35.112 23.2176 34.9519 22.6928 34.6318L21.4524 33.8752C21.035 33.6206 20.8263 33.4933 20.6104 33.4218C20.2115 33.2897 19.7837 33.2895 19.3847 33.4213C19.1687 33.4927 18.9599 33.6198 18.5423 33.8741L17.3063 34.6268C16.7816 34.9463 16.5192 35.1061 16.3063 35.1249C15.9084 35.1602 15.5316 34.9308 15.3615 34.5496C15.2706 34.3458 15.2706 34.0262 15.2706 33.3871V31.8835C15.2706 31.3754 15.2706 31.1213 15.3199 30.8885C15.411 30.4584 15.6248 30.068 15.9323 29.7697C16.0988 29.6083 16.3074 29.4812 16.7247 29.2271L18.5453 28.1185Z" fill="#2845C1"/>
<path d="M12.2419 22.7993C12.6704 23.0335 12.8847 23.1506 13.0543 23.3018C13.3678 23.5811 13.5815 23.9512 13.6668 24.3623C13.7129 24.5847 13.7073 24.8289 13.696 25.3171L13.6467 27.4495C13.6354 27.9382 13.6297 28.1826 13.5732 28.4075C13.4686 28.8233 13.2372 29.2037 12.9101 29.4978C12.7331 29.657 12.5129 29.784 12.0725 30.0382L10.766 30.7921C10.2122 31.1117 9.93527 31.2715 9.71316 31.2946C9.29797 31.3377 8.91089 31.1259 8.74263 30.7634C8.65262 30.5695 8.66004 30.2623 8.67486 29.6477L8.7099 28.1953C8.7217 27.7065 8.72759 27.462 8.68157 27.2393C8.59653 26.8278 8.3828 26.4573 8.06912 26.1776C7.89938 26.0263 7.68486 25.909 7.25583 25.6745L5.98602 24.9804C5.4469 24.6857 5.17734 24.5384 5.05457 24.3635C4.82506 24.0364 4.83537 23.5954 5.08041 23.2576C5.2115 23.0769 5.48824 22.9171 6.04172 22.5976L7.34383 21.8458C7.78393 21.5917 8.00399 21.4646 8.2302 21.391C8.64827 21.2549 9.09323 21.2447 9.50538 21.362C9.72839 21.4254 9.94273 21.5426 10.3714 21.7769L12.2419 22.7993Z" fill="#2845C1"/>
<path d="M13.6967 14.6807C13.7081 15.169 13.7138 15.4131 13.6677 15.6356C13.5825 16.0467 13.3689 16.4168 13.0555 16.6962C12.886 16.8474 12.6717 16.9646 12.2432 17.199L10.3718 18.2225C9.94299 18.457 9.72856 18.5743 9.50545 18.6378C9.09313 18.7551 8.64795 18.745 8.2297 18.6087C8.00339 18.535 7.78325 18.4079 7.34297 18.1535L6.03677 17.399C5.4831 17.0792 5.20627 16.9192 5.07521 16.7384C4.83022 16.4005 4.82013 15.9593 5.04991 15.6324C5.17283 15.4575 5.44264 15.3102 5.98226 15.0158L7.25764 14.3199C7.68686 14.0857 7.90147 13.9687 8.07133 13.8174C8.38523 13.538 8.59924 13.1677 8.6846 12.7562C8.73079 12.5335 8.72508 12.2891 8.71365 11.8003L8.67984 10.3536C8.66548 9.73933 8.6583 9.43222 8.74842 9.23842C8.91687 8.87616 9.30396 8.66458 9.71904 8.70788C9.94109 8.73104 10.2178 8.89082 10.7713 9.21037L12.0734 9.96215C12.5135 10.2162 12.7336 10.3433 12.9105 10.5024C13.2374 10.7964 13.4686 11.1767 13.5732 11.5922C13.6298 11.817 13.6355 12.0612 13.6469 12.5497L13.6967 14.6807Z" fill="#2845C1"/>
</g>
<path fill-rule="evenodd" clip-rule="evenodd" d="M109.937 16.0668C112.967 16.0668 114.964 18.0022 115.208 20.7522C115.262 21.36 115.293 22.025 115.186 22.625C115.151 22.8211 114.977 22.9584 114.778 22.9584H107.198C107.069 22.9584 106.968 23.0727 106.99 23.2002C107.334 25.1978 108.434 26.0332 110.192 26.0332C110.706 26.0332 111.231 25.8502 111.608 25.6803C111.818 25.5861 111.923 25.5389 111.992 25.5234C112.14 25.4904 112.235 25.4964 112.378 25.5468C112.445 25.5704 112.523 25.6179 112.68 25.7125L113.329 26.1044C113.751 26.3588 113.963 26.4857 114.05 26.6152C114.213 26.8599 114.208 27.1729 114.036 27.4117C113.945 27.5383 113.735 27.6553 113.316 27.8885C113.002 28.0635 112.68 28.2226 112.344 28.3428C111.184 28.7578 109.946 28.7713 108.699 28.5075C105.597 27.8514 103.948 25.2847 103.948 22.3569C103.948 18.9111 106.122 16.0669 109.937 16.0668ZM109.868 18.4719C108.452 18.4719 107.487 19.2107 107.109 20.5728C107.073 20.7043 107.175 20.8311 107.312 20.8311H112.189C112.311 20.831 112.409 20.7287 112.394 20.6079C112.255 19.5071 111.407 18.4719 109.868 18.4719Z" fill="#2845C1"/>
<path d="M69.9751 11.5774C72.1751 11.5774 73.8998 12.4715 75.2357 13.8616C75.3379 13.9679 75.3893 14.0211 75.4199 14.0877C75.4744 14.2068 75.469 14.3608 75.4063 14.4758C75.3711 14.5402 75.3118 14.5943 75.1928 14.7019L73.7246 16.0288C73.5879 16.1523 73.519 16.2148 73.4526 16.2433C73.3234 16.2984 73.1941 16.2912 73.0714 16.2228C73.0083 16.1876 72.9412 16.1127 72.8072 15.9635C71.9694 15.0303 71.042 14.4416 69.9975 14.4416C68.8431 14.4418 68.081 15.1809 68.0809 16.1506C68.0809 17.3859 69.3835 17.9541 70.8915 18.6113C72.9644 19.5147 75.4257 20.5871 75.4258 23.7958C75.3796 26.8446 73.0238 28.6693 70.0443 28.6694C67.5605 28.6694 65.8244 27.8447 64.4523 26.4047C64.3516 26.299 64.3012 26.2457 64.2709 26.1795C64.2173 26.0616 64.2224 25.9095 64.2836 25.7954C64.3181 25.7312 64.3765 25.6768 64.4932 25.5692L65.9497 24.2267C66.0871 24.1 66.1559 24.0363 66.2207 24.0074C66.3495 23.95 66.4709 23.9533 66.5961 24.0181C66.6592 24.0508 66.7326 24.1268 66.8788 24.2784C67.7837 25.2171 68.8937 25.7592 70.0209 25.7593C71.3142 25.7593 72.0993 25.0665 72.0994 23.9118C72.0994 22.647 70.7761 22.0646 69.2527 21.3946C67.1876 20.4864 64.7556 19.4165 64.7555 16.2666C64.7555 13.7029 66.8801 11.5774 69.9751 11.5774Z" fill="#2845C1"/>
<path d="M79.5906 16.5669C79.7596 16.5669 79.8441 16.567 79.9123 16.5903C80.0389 16.6337 80.139 16.7328 80.1823 16.8594C80.2057 16.9276 80.2057 17.0128 80.2057 17.1821V23.1729C80.2059 24.8586 81.0831 25.8976 82.6995 25.8977C84.2931 25.8977 85.1708 24.8587 85.1709 23.1729V17.1821C85.1709 17.0128 85.171 16.9276 85.1943 16.8594C85.2377 16.7328 85.3377 16.6337 85.4644 16.5903C85.5325 16.567 85.617 16.5669 85.7861 16.5669H87.5126C87.682 16.5669 87.7671 16.567 87.8353 16.5903C87.9617 16.6338 88.0611 16.733 88.1044 16.8594C88.1278 16.9276 88.1278 17.0128 88.1278 17.1821V23.0335C88.1278 26.521 86.0953 28.6692 82.6771 28.6694C79.2588 28.6694 77.2489 26.5211 77.2489 23.0335V17.1821C77.2489 17.0128 77.2489 16.9276 77.2723 16.8594C77.3156 16.733 77.415 16.6338 77.5413 16.5903C77.6095 16.567 77.6947 16.5669 77.864 16.5669H79.5906Z" fill="#2845C1"/>
<path fill-rule="evenodd" clip-rule="evenodd" d="M56.6482 16.0951C60.0202 16.0951 61.7527 18.1047 61.7528 20.6683V27.5833C61.7528 27.7523 61.7526 27.8369 61.7294 27.905C61.686 28.0317 61.5859 28.1317 61.4593 28.1751C61.3912 28.1983 61.3065 28.1985 61.1376 28.1985H59.4344C59.2651 28.1985 59.18 28.1984 59.1118 28.1751C58.9852 28.1317 58.886 28.0316 58.8427 27.905C58.8194 27.8369 58.8193 27.7523 58.8193 27.5833V27.4624C58.8193 27.359 58.8191 27.3071 58.8076 27.285C58.7844 27.2413 58.7403 27.2222 58.6925 27.2353C58.6685 27.2422 58.628 27.28 58.5483 27.3552C57.7709 28.0884 56.5426 28.5445 55.3321 28.5446C52.9994 28.5446 51.4053 27.2051 51.4051 25.0574C51.4051 23.3021 52.7676 21.985 55.2619 21.5691L58.5229 21.0183C58.6938 20.9895 58.8193 20.8417 58.8193 20.6683C58.8192 19.4443 57.8951 18.6591 56.5556 18.6591C55.6524 18.6591 54.9113 18.9977 54.3318 19.5686C54.1786 19.7196 54.1014 19.7949 54.0432 19.825C53.9228 19.8873 53.8225 19.8932 53.6952 19.8465C53.6337 19.8239 53.5634 19.7703 53.4232 19.6632L52.2514 18.7692C52.1261 18.6736 52.0634 18.6254 52.0223 18.5616C51.9511 18.4507 51.936 18.2836 51.9862 18.1619C52.0152 18.0915 52.0617 18.0407 52.1539 17.9396C53.2072 16.7852 54.7643 16.0951 56.6482 16.0951ZM58.4615 23.0841L56.0476 23.4868C54.8238 23.6946 54.3154 24.2022 54.3152 24.9179C54.3152 25.7032 54.9394 26.2116 55.9326 26.2116C57.1046 26.2115 57.9936 25.7342 58.5843 24.9959C58.6245 24.9457 58.6448 24.9205 58.6808 24.8594C58.7357 24.7664 58.7943 24.5998 58.8095 24.4929C58.8195 24.423 58.8193 24.3678 58.8193 24.2579V23.3873C58.8193 23.2893 58.8188 23.2404 58.8047 23.2031C58.7782 23.1338 58.7185 23.0823 58.6458 23.0676C58.6067 23.0597 58.5582 23.068 58.4615 23.0841Z" fill="#2845C1"/>
<path d="M99.0584 13.6568C99.2277 13.6568 99.3129 13.6569 99.3811 13.6802C99.5075 13.7237 99.6069 13.8229 99.6502 13.9493C99.6735 14.0174 99.6736 14.102 99.6736 14.271V16.3544C99.6736 16.4127 99.6733 16.442 99.6814 16.4655C99.6964 16.5093 99.7312 16.5432 99.775 16.5581C99.7985 16.5662 99.8277 16.5669 99.8861 16.5669H102.616C102.785 16.5669 102.869 16.567 102.938 16.5903C103.064 16.6337 103.163 16.7329 103.207 16.8594C103.23 16.9276 103.23 17.0128 103.23 17.1821V18.585C103.23 18.7541 103.23 18.8385 103.207 18.9067C103.163 19.0333 103.064 19.1334 102.938 19.1767C102.869 19.2 102.785 19.2001 102.616 19.2001H99.8861C99.8278 19.2001 99.7985 19.1999 99.775 19.2079C99.7313 19.2229 99.6964 19.2569 99.6814 19.3005C99.6733 19.3241 99.6736 19.3541 99.6736 19.4127V23.9577C99.6736 25.251 100.366 25.7592 101.521 25.7593C101.974 25.7593 102.34 25.7303 102.643 25.6764C102.852 25.6393 102.956 25.621 103.011 25.6316C103.125 25.6537 103.192 25.7088 103.234 25.8178C103.254 25.8696 103.253 25.9602 103.253 26.1405V27.6681C103.253 27.7771 103.253 27.8316 103.238 27.8875C103.212 27.9818 103.136 28.0854 103.054 28.1381C103.005 28.1693 102.963 28.1828 102.878 28.2092C102.377 28.3658 101.782 28.4383 101.013 28.4383C98.1029 28.4383 96.7167 26.7986 96.7167 23.9577V19.4127C96.7167 19.3541 96.717 19.3241 96.7089 19.3005C96.6938 19.257 96.659 19.2229 96.6153 19.2079C96.5918 19.2 96.5624 19.2001 96.5042 19.2001H95.1608C94.9918 19.2001 94.9072 19.1999 94.839 19.1767C94.7124 19.1334 94.6123 19.0333 94.569 18.9067C94.5458 18.8386 94.5456 18.7539 94.5456 18.585V17.1821C94.5456 17.0128 94.5456 16.9276 94.569 16.8594C94.6123 16.7328 94.7124 16.6337 94.839 16.5903C94.9072 16.5671 94.9917 16.5669 95.1608 16.5669H96.5042C96.5625 16.5669 96.5918 16.5661 96.6153 16.5581C96.6591 16.5432 96.6939 16.5093 96.7089 16.4655C96.717 16.442 96.7167 16.4127 96.7167 16.3544V14.271C96.7167 14.1021 96.7168 14.0174 96.7401 13.9493C96.7835 13.8227 96.8835 13.7236 97.0101 13.6802C97.0783 13.657 97.1628 13.6568 97.3319 13.6568H99.0584Z" fill="#2845C1"/>
<path d="M43.5962 12.1019C43.8037 12.085 44 12.199 44.0885 12.3875C44.1358 12.4883 44.1363 12.6464 44.1363 12.9617V25.0281C44.1363 25.1126 44.1363 25.1549 44.148 25.189C44.1697 25.2522 44.2193 25.3019 44.2825 25.3235C44.3166 25.3351 44.3589 25.3352 44.4434 25.3352H49.5002C49.6692 25.3352 49.7538 25.3353 49.8219 25.3586C49.9484 25.4019 50.0475 25.5013 50.091 25.6277C50.1143 25.6959 50.1144 25.7811 50.1144 25.9504V27.6077C50.1144 27.7768 50.1143 27.8613 50.091 27.9294C50.0476 28.056 49.9485 28.1561 49.8219 28.1995C49.7538 28.2227 49.6691 28.2229 49.5002 28.2229H41.6152C41.4459 28.2229 41.3607 28.2228 41.2925 28.1995C41.1659 28.1561 41.0667 28.056 41.0234 27.9294C41.0001 27.8613 41 27.7767 41 27.6077V14.3568C41 14.1211 41.0002 14.0026 41.0244 13.8947C41.0691 13.6955 41.174 13.5148 41.3246 13.377C41.4062 13.3024 41.5083 13.2436 41.7127 13.1265L43.0746 12.3466C43.3483 12.1898 43.4851 12.1109 43.5962 12.1019Z" fill="#2845C1"/>
<path d="M92.7693 16.5669C92.9384 16.5669 93.0229 16.5671 93.091 16.5903C93.2177 16.6337 93.3177 16.7328 93.3611 16.8594C93.3844 16.9276 93.3845 17.0128 93.3845 17.1821V27.5931C93.3845 27.762 93.3844 27.8467 93.3611 27.9148C93.3177 28.0414 93.2177 28.1405 93.091 28.1839C93.0229 28.2071 92.9384 28.2073 92.7693 28.2073H91.0662C90.8968 28.2073 90.8117 28.2072 90.7435 28.1839C90.617 28.1405 90.5177 28.0413 90.4744 27.9148C90.4511 27.8467 90.451 27.7621 90.451 27.5931V17.1821C90.451 17.0128 90.451 16.9276 90.4744 16.8594C90.5177 16.7329 90.617 16.6337 90.7435 16.5903C90.8117 16.567 90.8968 16.5669 91.0662 16.5669H92.7693Z" fill="#2845C1"/>
<path d="M91.929 10.7C92.9683 10.7 93.8232 11.5782 93.8232 12.6176C93.8229 13.6567 92.9682 14.5342 91.929 14.5342C90.8898 14.5342 90.0126 13.6567 90.0123 12.6176C90.0123 11.5783 90.8896 10.7 91.929 10.7Z" fill="#2845C1"/>
<path d="M141.12 23.448C141.12 24.4013 141.363 25.1495 141.847 25.6921C142.331 26.2346 143.005 26.5056 143.87 26.5056C144.721 26.5056 145.388 26.2347 145.872 25.6921C146.356 25.1495 146.599 24.4013 146.599 23.448V17.3121C146.599 17.2016 146.688 17.1121 146.799 17.1121H148.687C148.797 17.1121 148.887 17.2016 148.887 17.3121V23.3376C148.887 24.995 148.432 26.2935 147.522 27.2322C146.628 28.1708 145.41 28.6404 143.87 28.6404C142.829 28.6404 141.934 28.427 141.187 28.0017C140.439 27.5764 139.859 26.9675 139.448 26.1755C139.038 25.3836 138.832 24.4375 138.832 23.3376V17.3121C138.832 17.2016 138.922 17.1121 139.032 17.1121H140.92C141.031 17.1121 141.12 17.2016 141.12 17.3121V23.448Z" fill="#2845C1"/>
<path fill-rule="evenodd" clip-rule="evenodd" d="M153.496 18.0512C153.496 18.1194 153.581 18.1521 153.628 18.1023C154.083 17.633 154.604 17.2803 155.19 17.0457C155.792 16.7965 156.474 16.6716 157.236 16.6716C158.395 16.6717 159.392 16.9505 160.228 17.5076C161.078 18.0502 161.739 18.7769 162.208 19.6863C162.677 20.5809 162.912 21.5708 162.912 22.656C162.912 23.4627 162.78 24.2254 162.516 24.9441C162.252 25.6627 161.871 26.3009 161.372 26.8582C160.888 27.4154 160.294 27.8548 159.59 28.1775C158.886 28.4854 158.102 28.6403 157.236 28.6404C156.474 28.6404 155.792 28.5155 155.19 28.2664C154.604 28.0317 154.083 27.6791 153.628 27.2097C153.581 27.1597 153.496 27.1921 153.496 27.2606V28C153.496 28.1104 153.407 28.2 153.296 28.2H151.43C151.32 28.2 151.23 28.1104 151.23 28V11.9C151.23 11.7895 151.32 11.7 151.43 11.7H153.296C153.407 11.7 153.496 11.7895 153.496 11.9V18.0512ZM156.95 18.8064C156.232 18.8064 155.571 18.9749 154.97 19.3123C154.472 19.5792 154.041 19.9519 153.674 20.4297C153.553 20.5875 153.496 20.7837 153.496 20.9827V24.3286C153.496 24.5274 153.553 24.7234 153.674 24.8814C154.04 25.3621 154.472 25.7429 154.97 26.0222C155.571 26.3449 156.232 26.5056 156.95 26.5056C157.669 26.5056 158.292 26.3371 158.82 25.9998C159.363 25.6478 159.781 25.1859 160.074 24.614C160.368 24.0274 160.514 23.3746 160.514 22.656C160.514 21.9227 160.368 21.27 160.074 20.698C159.781 20.126 159.363 19.6711 158.82 19.3337C158.292 18.9818 157.669 18.8064 156.95 18.8064Z" fill="#2845C1"/>
<path d="M124.906 19.0019C124.906 19.1124 124.996 19.2019 125.106 19.2019H133.352C133.462 19.2019 133.552 19.1124 133.552 19.0019V12.9996C133.552 12.8891 133.641 12.7996 133.752 12.7996H135.882C135.992 12.7996 136.082 12.8891 136.082 12.9996V28C136.082 28.1104 135.992 28.2 135.882 28.2H133.752C133.641 28.2 133.552 28.1104 133.552 28V21.7115C133.552 21.601 133.462 21.5115 133.352 21.5115H125.106C124.996 21.5115 124.906 21.601 124.906 21.7115V28C124.906 28.1104 124.817 28.2 124.706 28.2H122.554C122.444 28.2 122.354 28.1104 122.354 28V12.9996C122.354 12.8891 122.444 12.7996 122.554 12.7996H124.706C124.817 12.7996 124.906 12.8891 124.906 12.9996V19.0019Z" fill="#2845C1"/>
<defs>
<clipPath id="clip0_1490_5598">
<rect width="32" height="32" fill="white" transform="translate(4 4)"/>
</clipPath>
</defs>
</svg>
